<svg width="336" height="44" viewBox="0 0 336 44" fill="none" xmlns="http://www.w3.org/2000/svg">
<path fill-rule="evenodd" clip-rule="evenodd" d="M336 44H0V0C0 5.59059 15.7073 10.1148 35.1397 10.1148C51.0953 10.1148 64.5366 7.07107 68.8411 2.88848C73.1456 7.07107 86.5868 10.1148 102.532 10.1148C118.488 10.1148 131.929 7.07107 136.234 2.88848C140.538 7.07107 153.979 10.1148 169.925 10.1148C185.88 10.1148 199.321 7.07107 203.626 2.88848C207.931 7.07107 221.372 10.1148 237.317 10.1148C251.358 10.1148 263.455 7.75436 269.083 4.33788C274.723 7.75436 286.819 10.1148 300.86 10.1148C320.293 10.1148 336 5.59059 336 0V44Z" fill="url(#paint0_linear_1_5)"/>
<defs>
<linearGradient id="paint0_linear_1_5" x1="70.865" y1="13.4329" x2="70.889" y2="45.935" gradientUnits="userSpaceOnUse">
<stop offset="0.009" stop-color="#4CA1FC"/>
<stop offset="1" stop-color="#063A70"/>
</linearGradient>
</defs>
</svg>
